# xmcd
#
# Track frame offsets:
# 150
# 26099
# 48972
# 68497
# 95463
# 115184
# 137612
# 156676
# 192160
# 208611
# 216549
# 243835
#
# Disc length: 3585 seconds
#
#
# Revision: 0
# Processed by: cddbd v1.5.1PL0 Copyright (c) Steve Scherf et al.
# Submitted via: FreeRIP 2.91 
#
DISCID=ac0dff0c
DTITLE=Walter Trout - Prisoner Of A Dream
DYEAR=1990
DGENRE=Blues
TTITLE0=Prisoner Of A Dream
TTITLE1=The Love That We Once Knew
TTITLE2=Sweet As A Flower
TTITLE3=Love In Vain
TTITLE4=Victor The Cajun
TTITLE5=Girl From The North Country
TTITLE6=False Alarm
TTITLE7=Say Goodbye To The Blues
TTITLE8=You're The One
TTITLE9=Earrings On The Table
TTITLE10=Tribute To Muddy Walters
TTITLE11=Bonus Track
EXTD=
EXTT0=
EXTT1=
EXTT2=
EXTT3=
EXTT4=
EXTT5=
EXTT6=
EXTT7=
EXTT8=
EXTT9=
EXTT10=
EXTT11=
PLAYORDER=
